<?xml version="1.0" encoding="utf-8"?>
<!-- Generator: Adobe Illustrator 21.1.0, SVG Export Plug-In . SVG Version: 6.00 Build 0)  -->
<svg version="1.1" id="レイヤー_1" xmlns="http://www.w3.org/2000/svg" xmlns:xlink="http://www.w3.org/1999/xlink" x="0px"
	 y="0px" viewBox="0 0 64 64" style="enable-background:new 0 0 64 64;" xml:space="preserve">
<style type="text/css">
	.st0{fill:#FFFFFF;}
</style>
<path class="st0" d="M63,39.7C58.8,56.9,41.4,67.3,24.3,63C7.1,58.8-3.3,41.4,1,24.3C5.2,7.1,22.6-3.3,39.7,1
	C56.9,5.2,67.3,22.6,63,39.7z"/>
<path d="M44.7,24.5c-0.4-4.3-4.3-5.7-9.3-6.1v-5.9h-3.8v5.8c-1.1,0-2,0-3.1,0v-5.8h-3.8v5.9c-0.8,0-1.7,0-2.4,0l0,0H17v3.9
	c0,0,2.9-0.1,2.7,0c1.6,0,2,0.9,2.2,1.6v6.8c0.1,0,0.2,0,0.4,0c-0.1,0-0.2,0-0.4,0v9.5c-0.1,0.5-0.3,1.2-1.5,1.2h-2.7L17,45.7h5
	c1,0,1.8,0,2.7,0v6h3.8v-5.9c1.1,0,2.1,0,3.1,0v5.9h3.8v-6c6.5-0.3,10.9-1.9,11.5-7.6c0.4-4.6-1.8-6.7-5.5-7.5
	C43.7,29.5,45,27.6,44.7,24.5z M39.4,37.3c0,4.5-8.1,4-10.7,4v-8C31.3,33.3,39.4,32.6,39.4,37.3z M37.6,26.1c0,4.1-6.8,3.6-9,3.6
	v-7.2C30.9,22.5,37.6,21.8,37.6,26.1z"/>
</svg>
