<?xml version="1.0" encoding="utf-8"?>
<!-- Generator: Adobe Illustrator 21.1.0, SVG Export Plug-In . SVG Version: 6.00 Build 0)  -->
<svg version="1.1" id="レイヤー_1" xmlns="http://www.w3.org/2000/svg" xmlns:xlink="http://www.w3.org/1999/xlink" x="0px"
	 y="0px" viewBox="0 0 64 64" style="enable-background:new 0 0 64 64;" xml:space="preserve">
<style type="text/css">
	.st0{fill:#FFFFFF;}
</style>
<path class="st0" d="M63,39.7C58.8,56.9,41.4,67.3,24.3,63C7.1,58.8-3.3,41.4,1,24.3C5.2,7.1,22.6-3.3,39.7,1
	C56.9,5.2,67.3,22.6,63,39.7z"/>
<path id="Shape" d="M17.4,22.3c0-0.5-0.1-1-0.5-1.3l-3.6-5.5v-0.7h11.1L33,35.7l7.5-20.9h10.5v0.7l-3,4c-0.3,0.2-0.4,0.6-0.3,0.9
	v22.8c-0.1,0.3,0.1,0.7,0.3,0.9l3,4.3v0.7H36v-0.7l3.1-4.4c0.3-0.3,0.3-0.4,0.3-0.9V24.7l-8.6,24.4h-1.2l-10-24.4v15.5
	c-0.1,0.7,0.1,1.3,0.6,1.8l4,6.4v0.7H12.9v-0.7l4-6.4c0.4-0.5,0.6-1.1,0.5-1.8V22.3z"/>
</svg>
