<?xml version="1.0" encoding="utf-8"?>
<!-- Generator: Adobe Illustrator 21.1.0, SVG Export Plug-In . SVG Version: 6.00 Build 0)  -->
<svg version="1.1" id="レイヤー_1" xmlns="http://www.w3.org/2000/svg" xmlns:xlink="http://www.w3.org/1999/xlink" x="0px"
	 y="0px" viewBox="0 0 64 64" style="enable-background:new 0 0 64 64;" xml:space="preserve">
<style type="text/css">
	.st0{fill:#FFFFFF;}
</style>
<path class="st0" d="M63,39.7C58.8,56.9,41.4,67.3,24.3,63C7.1,58.8-3.3,41.4,1,24.3C5.2,7.1,22.6-3.3,39.7,1
	C56.9,5.2,67.3,22.6,63,39.7z"/>
<path d="M52.2,32.3c-0.1-2.4-2.1-4.4-4.6-4.3c-1.1,0-2.1,0.5-2.9,1.2c-3.5-2.4-7.5-3.6-11.7-3.7l2-10.6l6.5,1.4
	c0.2,1.7,1.7,2.9,3.3,2.7c1.7-0.2,2.9-1.7,2.7-3.3c-0.2-1.7-1.7-2.9-3.3-2.7c-1,0.1-1.8,0.7-2.3,1.5L34.5,13c-0.5-0.1-1,0.2-1.1,0.7
	l0,0l-2.2,11.7c-4.2,0.1-8.3,1.4-11.8,3.7c-1.8-1.7-4.6-1.6-6.3,0.2c-1.7,1.8-1.6,4.6,0.2,6.3c0.3,0.3,0.7,0.6,1.2,0.8
	c0,0.4,0,0.9,0,1.3c0,6.8,7.9,12.3,17.7,12.3s17.7-5.5,17.7-12.3c0-0.4,0-0.9,0-1.3C51.3,35.5,52.2,34,52.2,32.3z M22.4,35.3
	c0-1.7,1.4-3,3-3s3,1.4,3,3s-1.4,3-3,3S22.4,37,22.4,35.3z M39.5,44.2c-2.2,1.6-4.8,2.5-7.5,2.3c-2.7,0.1-5.3-0.7-7.5-2.3
	c-0.3-0.3-0.2-0.9,0.1-1.2c0.3-0.2,0.7-0.2,1,0c1.8,1.3,4,2,6.3,1.9c2.3,0.1,4.5-0.5,6.3-1.8c0.3-0.3,0.9-0.3,1.2,0s0.3,0.9,0,1.2
	l0,0L39.5,44.2L39.5,44.2z M38.4,38.5c-1.7,0-3-1.4-3-3c0-1.7,1.4-3,3-3s3,1.4,3,3c0.1,1.7-1.2,3.1-2.9,3.2c-0.1,0-0.1,0-0.2,0
	L38.4,38.5z"/>
</svg>
