<?xml version="1.0" encoding="utf-8"?>
<!-- Generator: Adobe Illustrator 21.1.0, SVG Export Plug-In . SVG Version: 6.00 Build 0)  -->
<svg version="1.1" id="レイヤー_1" xmlns="http://www.w3.org/2000/svg" xmlns:xlink="http://www.w3.org/1999/xlink" x="0px"
	 y="0px" viewBox="0 0 64 64" style="enable-background:new 0 0 64 64;" xml:space="preserve">
<style type="text/css">
	.st0{fill:#FFFFFF;}
</style>
<path class="st0" d="M63,39.7C58.8,56.9,41.4,67.3,24.3,63C7.1,58.8-3.3,41.4,1,24.3C5.2,7.1,22.6-3.3,39.7,1
	C56.9,5.2,67.3,22.6,63,39.7z"/>
<g>
	<rect x="16.8" y="26" width="6.5" height="22.6"/>
	<path d="M20.1,23.1c-2.1,0-3.8-1.7-3.8-3.8c0-2.1,1.7-3.8,3.8-3.8c2.1,0,3.8,1.7,3.8,3.8C23.8,21.5,22.2,23.1,20.1,23.1z"/>
	<path d="M47.6,48.6h-6.5V36.7c0-2.4,0-5.5-3.4-5.5c-3.4,0-3.9,2.6-3.9,5.4v12h-6.5V26h6.2v2.9h0.1c0.9-1.6,3-3.4,6.1-3.4
		c6.6,0,7.8,4.3,7.8,9.9V48.6z"/>
</g>
</svg>
