<?xml version="1.0" encoding="utf-8"?>
<!-- Generator: Adobe Illustrator 21.1.0, SVG Export Plug-In . SVG Version: 6.00 Build 0)  -->
<svg version="1.1" id="レイヤー_1" xmlns="http://www.w3.org/2000/svg" xmlns:xlink="http://www.w3.org/1999/xlink" x="0px"
	 y="0px" viewBox="0 0 64 64" style="enable-background:new 0 0 64 64;" xml:space="preserve">
<style type="text/css">
	.st0{fill:#FFFFFF;}
</style>
<path class="st0" d="M63,39.7C58.8,56.9,41.4,67.3,24.3,63C7.1,58.8-3.3,41.4,1,24.3C5.2,7.1,22.6-3.3,39.7,1
	C56.9,5.2,67.3,22.6,63,39.7z"/>
<path id="f" d="M35.1,51.7V33.6h6.5l0.3-6.9h-6.8v-4.4c0-2,0.6-3.4,3.4-3.4l3.7,0v-6.2c-0.6-0.1-2.8-0.3-5.3-0.3
	c-5.3,0-8.9,3.3-8.9,9.2v5.1h-6.2v6.9H28v18.1H35.1z"/>
</svg>
