<?xml version="1.0" encoding="utf-8"?>
<!-- Generator: Adobe Illustrator 21.1.0, SVG Export Plug-In . SVG Version: 6.00 Build 0)  -->
<svg version="1.1" id="レイヤー_1" xmlns="http://www.w3.org/2000/svg" xmlns:xlink="http://www.w3.org/1999/xlink" x="0px"
	 y="0px" viewBox="0 0 64 64" style="enable-background:new 0 0 64 64;" xml:space="preserve">
<style type="text/css">
	.st0{fill:#FFFFFF;}
</style>
<path class="st0" d="M63,39.7C58.8,56.9,41.4,67.3,24.3,63C7.1,58.8-3.3,41.4,1,24.3C5.2,7.1,22.6-3.3,39.7,1
	C56.9,5.2,67.3,22.6,63,39.7z"/>
<path d="M51.3,19.5c-1.4,0.7-2.9,1.2-4.5,1.4c1.6-1.1,2.9-2.9,3.5-4.9c-1.5,1-3.2,1.8-5.1,2.1c-1.4-1.7-3.5-2.8-5.8-2.8
	c-4.4,0-7.9,3.9-7.9,8.8c0,0.7,0.1,1.3,0.2,2c-6.6-0.4-12.5-3.9-16.3-9.3c-0.7,1.3-1.1,2.9-1.1,4.5c0,3,1.4,5.8,3.6,7.3
	c-1.3-0.1-2.5-0.4-3.6-1.1v0.1c0,4.3,2.8,7.8,6.3,8.6c-0.6,0.2-1.3,0.3-2,0.3c-0.5,0-1-0.1-1.5-0.2c1,3.5,3.9,6.1,7.4,6.1
	c-2.7,2.4-6.1,3.7-9.9,3.7c-0.6,0-1.2,0-1.9-0.1c3.5,2.5,7.7,4,12.1,4c14.6,0,22.5-13.4,22.5-25.1c0-0.4,0-0.8,0-1.2
	C48.9,22.9,50.3,21.3,51.3,19.5z"/>
</svg>
