<?xml version="1.0" encoding="utf-8"?>
<!-- Generator: Adobe Illustrator 21.1.0, SVG Export Plug-In . SVG Version: 6.00 Build 0)  -->
<svg version="1.1" id="レイヤー_1" xmlns="http://www.w3.org/2000/svg" xmlns:xlink="http://www.w3.org/1999/xlink" x="0px"
	 y="0px" viewBox="0 0 64 64" style="enable-background:new 0 0 64 64;" xml:space="preserve">
<style type="text/css">
	.st0{fill:#FFFFFF;}
</style>
<path class="st0" d="M63,39.7C58.8,56.9,41.4,67.3,24.3,63C7.1,58.8-3.3,41.4,1,24.3C5.2,7.1,22.6-3.3,39.7,1
	C56.9,5.2,67.3,22.6,63,39.7z"/>
<g>
	<path d="M40.7,51.7c-0.3,0-0.6-0.1-0.9-0.3l-9.8-7l-5.3,4c-0.4,0.3-0.9,0.4-1.4,0.2c-0.5-0.2-0.8-0.6-1-1.1L19.6,37l-9.5-3.8
		c-0.6-0.2-1-0.8-1-1.5c0-0.7,0.4-1.3,1-1.5l36-15c0.2-0.1,0.3-0.1,0.5-0.1c0.1,0,0.1,0,0.2,0c0.4,0,0.7,0.2,1,0.5
		c0,0,0.1,0.1,0.1,0.1c0.2,0.3,0.4,0.6,0.4,0.9c0,0.1,0,0.2,0,0.3c0,0.1,0,0.1,0,0.2l-6.1,33.4c-0.1,0.5-0.4,1-0.9,1.2
		C41.1,51.7,40.9,51.7,40.7,51.7z M30.8,41.2l8.8,6.2l4.7-26L27.2,38.6L30.8,41.2C30.8,41.1,30.8,41.2,30.8,41.2z M23.5,39.8
		l1.2,4.7l2.5-1.9l-3.3-2.4C23.8,40.1,23.6,39.9,23.5,39.8z M15,31.7l6.5,2.6c0.5,0.2,0.8,0.6,0.9,1.1l0.8,3.3c0-0.4,0.2-0.7,0.5-1
		L40,21.3L15,31.7z"/>
</g>
</svg>
