<svg xmlns="http://www.w3.org/2000/svg" viewBox="0 0 752 565"><defs><style>.cls-1{fill:#fff;}</style></defs><title>アセット 3</title><g id="レイヤー_2" data-name="レイヤー 2"><g id="レイヤー_1-2" data-name="レイヤー 1"><path class="cls-1" d="M752,32c0,17.6-15.75,32-35,32H35C15.75,64,0,49.6,0,32S15.75,0,35,0H717C736.25,0,752,14.4,752,32Z"/><path class="cls-1" d="M752,282c0,17.6-15.75,32-35,32H35c-19.25,0-35-14.4-35-32s15.75-32,35-32H717C736.25,250,752,264.4,752,282Z"/><path class="cls-1" d="M752,533c0,17.6-15.75,32-35,32H35c-19.25,0-35-14.4-35-32s15.75-32,35-32H717C736.25,501,752,515.4,752,533Z"/></g></g></svg>